# xmcd
#
# Track frame offsets: 
#        150
#        18649
#        32274
#        54043
#        72886
#        86785
#        108411
#        129083
#
# Disc length: 1882 seconds
#
# Revision: 0
# Processed by: cddbd v1.5.2PL0 Copyright (c) Steve Scherf et al.
# Submitted via: ExactAudioCopyFreeDBPlugin 1.0
#
DISCID=58075808
DTITLE=Stoney LaRue - Live Acoustic
DYEAR=2009
DGENRE=Country
TTITLE0=I've Got That Old Feeling [live]
TTITLE1=Box #10 [live]
TTITLE2=Everything That Glitters [live]
TTITLE3=Train To Birmingham [live]
TTITLE4=Blue Eyes Crying In The Rain [live]
TTITLE5=Love You For Loving Me [live]
TTITLE6=Empty Glass [live]
TTITLE7=Tie My Boat [live]
EXTD=
EXTT0=
EXTT1=
EXTT2=
EXTT3=
EXTT4=
EXTT5=
EXTT6=
EXTT7=
PLAYORDER=
